<svg width="48" height="48" viewBox="0 0 48 48" fill="none" xmlns="http://www.w3.org/2000/svg">
  <circle cx="24" cy="24" r="20" stroke="#2563EB" stroke-width="2" fill="none"/>
  <path d="M24 4C24 4 16 12 16 24C16 36 24 44 24 44" stroke="#2563EB" stroke-width="2"/>
  <path d="M24 4C24 4 32 12 32 24C32 36 24 44 24 44" stroke="#2563EB" stroke-width="2"/>
  <line x1="4" y1="24" x2="44" y2="24" stroke="#2563EB" stroke-width="2"/>
  <path d="M8 14C8 14 12 16 24 16C36 16 40 14 40 14" stroke="#2563EB" stroke-width="2"/>
  <path d="M8 34C8 34 12 32 24 32C36 32 40 34 40 34" stroke="#2563EB" stroke-width="2"/>
</svg>
